<svg xmlns="http://www.w3.org/2000/svg" xmlns:xlink="http://www.w3.org/1999/xlink" viewBox="0 0 48.32 62.75"><defs><style>.cls-1{fill:url(#linear-gradient);}.cls-2{fill:#fff;}.cls-3,.cls-4{stroke:#000;stroke-miterlimit:10;stroke-width:0.1px;}.cls-3{fill:url(#radial-gradient);}.cls-4{fill:url(#linear-gradient-2);}</style><linearGradient id="linear-gradient" y1="33.32" x2="48.32" y2="33.32" gradientUnits="userSpaceOnUse"><stop offset="0" stop-color="#020024"/><stop offset="0.09" stop-color="#060023"/><stop offset="0.15" stop-color="#102" stop-opacity="0.99"/><stop offset="0.22" stop-color="#24001f" stop-opacity="0.99"/><stop offset="0.28" stop-color="#3e001b" stop-opacity="0.98"/><stop offset="0.33" stop-color="#600017" stop-opacity="0.96"/><stop offset="0.39" stop-color="#8a0011" stop-opacity="0.95"/><stop offset="0.44" stop-color="#bc000a" stop-opacity="0.93"/><stop offset="0.49" stop-color="#f50001" stop-opacity="0.9"/><stop offset="0.5" stop-color="red" stop-opacity="0.9"/><stop offset="0.51" stop-color="#f50001" stop-opacity="0.9"/><stop offset="0.56" stop-color="#bc000a" stop-opacity="0.93"/><stop offset="0.61" stop-color="#8a0011" stop-opacity="0.95"/><stop offset="0.67" stop-color="#600017" stop-opacity="0.96"/><stop offset="0.72" stop-color="#3e001b" stop-opacity="0.98"/><stop offset="0.78" stop-color="#24001f" stop-opacity="0.99"/><stop offset="0.85" stop-color="#102" stop-opacity="0.99"/><stop offset="0.91" stop-color="#060023"/><stop offset="1" stop-color="#020024"/></linearGradient><radialGradient id="radial-gradient" cx="26.49" cy="39.06" r="16.15" gradientUnits="userSpaceOnUse"><stop offset="0.25" stop-color="red"/><stop offset="0.6" stop-color="#430976"/><stop offset="1" stop-color="#020024"/></radialGradient><linearGradient id="linear-gradient-2" x1="9.94" y1="24.1" x2="24.16" y2="24.1" gradientUnits="userSpaceOnUse"><stop offset="0" stop-color="#020024"/><stop offset="0.5" stop-color="#430976"/><stop offset="1" stop-color="red"/></linearGradient></defs><title>GearHead logo</title><g id="Gear"><path id="Gear-2" data-name="Gear" class="cls-1" d="M45.71,33.2l2.61-.47a24.35,24.35,0,0,0-.18-2.44l-2.65-.08c-.07-.5-.16-1-.27-1.49l2.46-1A23.3,23.3,0,0,0,47,25.37l-2.61.47c-.17-.47-.37-.94-.58-1.4L46,23a23.41,23.41,0,0,0-1.17-2.15l-2.45,1c-.27-.43-.55-.85-.85-1.26l1.83-1.91c-.5-.65-1-1.27-1.58-1.87l-2.19,1.5c-.35-.36-.72-.71-1.1-1.05L39.89,15c-.62-.53-1.27-1-1.94-1.5l-1.83,1.92c-.42-.28-.85-.55-1.29-.8l.9-2.49c-.71-.39-1.45-.75-2.2-1.07l-1.39,2.26c-.47-.19-.95-.36-1.43-.51l.35-2.63a23.37,23.37,0,0,0-2.37-.57l-.89,2.49c-.5-.08-1-.15-1.51-.2L26.1,9.23c-.64-.05-2.28-.08-2.45-.07l-.35,2.62c-.51,0-1,.06-1.51.12l-.74-2.55a23.81,23.81,0,0,0-2.41.44l.2,2.64c-.49.12-1,.27-1.46.42l-1.25-2.33a22.33,22.33,0,0,0-2.26.93L14.61,14c-.45.23-.9.47-1.33.72l-1.71-2a23.94,23.94,0,0,0-2,1.38l1.26,2.33c-.4.32-.79.64-1.16,1l-2.1-1.62c-.59.56-1.15,1.15-1.69,1.77l1.72,2q-.48.59-.93,1.2L4.26,19.6A23.18,23.18,0,0,0,3,21.68l2.1,1.62c-.24.44-.46.9-.66,1.36L1.84,24A23.28,23.28,0,0,0,1,26.33l2.39,1.15c-.14.49-.26,1-.36,1.48L.4,28.88A21.34,21.34,0,0,0,.08,31.3l2.57.62c0,.47,0,1.48,0,1.52L0,33.91a24.35,24.35,0,0,0,.18,2.44l2.65.08c.07.5.16,1,.27,1.49l-2.45,1c.19.8.42,1.59.68,2.35l2.61-.48c.18.48.37,1,.58,1.41L2.33,43.69a21.15,21.15,0,0,0,1.16,2.15l2.45-1c.27.43.56.85.86,1.26L5,48c.5.65,1,1.27,1.59,1.87l2.18-1.5c.36.36.72.71,1.1,1.05l-1.4,2.25c.62.53,1.27,1,1.94,1.5l1.83-1.92c.42.28.85.55,1.29.8l-.9,2.49c.72.39,1.45.75,2.2,1.07l1.4-2.26c.46.19.94.36,1.43.51l-.36,2.63a23.37,23.37,0,0,0,2.37.57l.89-2.49c.5.08,1,.15,1.51.2l.19,2.64c.64.05,2.28.08,2.45.07L25,54.86c.51,0,1-.06,1.51-.12l.75,2.55a24.13,24.13,0,0,0,2.4-.44l-.2-2.64c.49-.12,1-.27,1.46-.43l1.25,2.34a22.51,22.51,0,0,0,2.27-.93l-.75-2.54c.45-.23.9-.47,1.33-.72l1.72,2c.69-.43,1.37-.89,2-1.38l-1.26-2.33c.39-.32.78-.64,1.15-1l2.1,1.62c.59-.56,1.15-1.15,1.69-1.77l-1.72-2q.48-.59.93-1.2L44.06,47A23.18,23.18,0,0,0,45.34,45l-2.09-1.62c.23-.44.45-.9.65-1.36l2.58.63a22.58,22.58,0,0,0,.82-2.31l-2.39-1.14c.14-.49.26-1,.36-1.48l2.65.08a23.88,23.88,0,0,0,.33-2.42l-2.58-.63C45.7,34.25,45.71,33.24,45.71,33.2ZM24.16,50.67A17.35,17.35,0,1,1,41.51,33.32,17.35,17.35,0,0,1,24.16,50.67Z"/></g><g id="Stroke"><g id="Stroke-2" data-name="Stroke"><polygon class="cls-2" points="23.96 45.38 10.46 48.21 17.18 39.19 7.01 32.45 26.29 1.82 25.88 26.81 32.08 18.13 42.06 14.74 29.69 34.5 40.02 31.52 22.43 59.46 11.66 61.94 23.96 45.38"/><path d="M25.75,3.63l-.41,24.81,7.05-9.88,8.48-2.88L28.55,35.36l10.33-3L22.11,59l-9.22,2.12L25.17,44.61,11.68,47.44l6.24-8.38L7.71,32.3l18-28.67M26.83,0,24.89,3.09l-18,28.66-.53.85.83.55,9.3,6.16-5.59,7.52L9.25,49l2.64-.55,10.85-2.28L12.07,60.52l-1.65,2.23,2.7-.63L22.34,60l.41-.09.22-.36L39.74,32.92l1.43-2.26-2.57.74-7.77,2.24,10.9-17.41,1.53-2.43-2.72.92L32.07,17.6l-.32.1-.19.27-5.15,7.21.36-21.53L26.83,0Z"/></g></g><g id="H"><polygon id="H-2" data-name="H" class="cls-3" points="37.29 18.93 32.25 20.75 15.69 45.14 20.01 44.35 23.43 39.38 27.62 42.31 16.1 59.19 20.44 58.36 37.02 33.81 32.17 35.51 28.96 40.19 24.73 37.39 37.29 18.93"/></g><g id="G"><polygon id="G-2" data-name="G" class="cls-4" points="22.02 23.89 21.98 27.98 18.06 33.69 13.82 30.89 23.92 16.06 23.92 10.46 9.94 31.06 19.2 37.55 21.93 33.5 21.9 37.74 24.04 34.49 24.16 20.64 22.02 23.89"/></g></svg>